ffmpeg version 3.4.8-0ubuntu0.2 Copyright (c) 2000-2020 the FFmpeg developers
  built with gcc 7 (Ubuntu 7.5.0-3ubuntu1~18.04)
  configuration: --prefix=/usr --extra-version=0ubuntu0.2 --toolchain=hardened --libdir=/usr/lib/x86_64-linux-gnu --incdir=/usr/include/x86_64-linux-gnu --enable-gpl --disable-stripping --enable-avresample --enable-avisynth --enable-gnutls --enable-ladspa --enable-libass --enable-libbluray --enable-libbs2b --enable-libcaca --enable-libcdio --enable-libflite --enable-libfontconfig --enable-libfreetype --enable-libfribidi --enable-libgme --enable-libgsm --enable-libmp3lame --enable-libmysofa --enable-libopenjpeg --enable-libopenmpt --enable-libopus --enable-libpulse --enable-librubberband --enable-librsvg --enable-libshine --enable-libsnappy --enable-libsoxr --enable-libspeex --enable-libssh --enable-libtheora --enable-libtwolame --enable-libvorbis --enable-libvpx --enable-libwavpack --enable-libwebp --enable-libx265 --enable-libxml2 --enable-libxvid --enable-libzmq --enable-libzvbi --enable-omx --enable-openal --enable-opengl --enable-sdl2 --enable-libdc1394 --enable-libdrm --enable-libiec61883 --enable-chromaprint --enable-frei0r --enable-libopencv --enable-libx264 --enable-shared
  libavutil      55. 78.100 / 55. 78.100
  libavcodec     57.107.100 / 57.107.100
  libavformat    57. 83.100 / 57. 83.100
  libavdevice    57. 10.100 / 57. 10.100
  libavfilter     6.107.100 /  6.107.100
  libavresample   3.  7.  0 /  3.  7.  0
  libswscale      4.  8.100 /  4.  8.100
  libswresample   2.  9.100 /  2.  9.100
  libpostproc    54.  7.100 / 54.  7.100
[rawvideo @ 0x55df7b303a20] Estimating duration from bitrate, this may be inaccurate
Input #0, rawvideo, from '../../SVC-Encoder-20220109T061506Z-001/SVC-Encoder/Dataset/RollerCoaster/6f_2x2/tile_yuv/f1_t0_480x480.yuv':
  Duration: 00:00:10.00, start: 0.000000, bitrate: 82944 kb/s
    Stream #0:0: Video: rawvideo (I420 / 0x30323449), yuv420p, 480x480, 82944 kb/s, 30 tbr, 30 tbn, 30 tbc
Stream mapping:
  Stream #0:0 -> #0:0 (rawvideo (native) -> h264 (libx264))
Press [q] to stop, [?] for help
[libx264 @ 0x55df7b310c60] using cpu capabilities: MMX2 SSE2Fast LZCNT SSSE3 SSE4.2 AVX
[libx264 @ 0x55df7b310c60] profile High, level 3.0
Output #0, rawvideo, to 'RollerCoaster_f1_t0_480x480_x264_QP_32.h264':
  Metadata:
    encoder         : Lavf57.83.100
    Stream #0:0: Video: h264 (libx264), yuv420p, 480x480, q=-1--1, 30 fps, 30 tbn, 30 tbc
    Metadata:
      encoder         : Lavc57.107.100 libx264
    Side data:
      cpb: bitrate max/min/avg: 0/0/0 buffer size: 0 vbv_delay: -1
frame=  142 fps=0.0 q=38.0 PSNR=Y:nan U:nan V:nan *:nan size=      60kB time=00:00:03.30 bitrate= 148.1kbits/s speed=6.58x    frame=  257 fps=256 q=38.0 PSNR=Y:nan U:nan V:nan *:nan size=     113kB time=00:00:07.13 bitrate= 129.2kbits/s speed=7.11x    frame=  300 fps=227 q=38.0 LPSNR=Y:inf U:inf V:inf *:inf size=     156kB time=00:00:09.93 bitrate= 128.3kbits/s speed=7.52x    
video:156kB audio:0kB subtitle:0kB other streams:0kB global headers:0kB muxing overhead: 0.000000%
[libx264 @ 0x55df7b310c60] frame I:2     Avg QP:30.25  size: 12477  PSNR Mean Y:37.89 U:45.61 V:48.83 Avg:39.38 Global:39.26
[libx264 @ 0x55df7b310c60] frame P:76    Avg QP:31.60  size:  1166  PSNR Mean Y:36.31 U:45.10 V:48.01 Avg:37.86 Global:37.85
[libx264 @ 0x55df7b310c60] frame B:222   Avg QP:37.51  size:   206  PSNR Mean Y:36.05 U:45.05 V:48.04 Avg:37.61 Global:37.60
[libx264 @ 0x55df7b310c60] consecutive B-frames:  1.0%  0.7%  1.0% 97.3%
[libx264 @ 0x55df7b310c60] mb I  I16..4: 17.2% 76.0%  6.8%
[libx264 @ 0x55df7b310c60] mb P  I16..4:  0.4%  0.8%  0.1%  P16..4: 31.0%  4.9%  1.4%  0.0%  0.0%    skip:61.4%
[libx264 @ 0x55df7b310c60] mb B  I16..4:  0.0%  0.0%  0.0%  B16..8: 18.5%  0.5%  0.1%  direct: 0.0%  skip:80.9%  L0:34.8% L1:64.5% BI: 0.6%
[libx264 @ 0x55df7b310c60] 8x8 transform intra:71.4% inter:72.3%
[libx264 @ 0x55df7b310c60] coded y,uvDC,uvAC intra: 57.1% 41.1% 3.2% inter: 2.1% 0.8% 0.0%
[libx264 @ 0x55df7b310c60] i16 v,h,dc,p: 18% 32% 26% 24%
[libx264 @ 0x55df7b310c60] i8 v,h,dc,ddl,ddr,vr,hd,vl,hu:  7% 20% 31%  4%  7%  6% 11%  4%  9%
[libx264 @ 0x55df7b310c60] i4 v,h,dc,ddl,ddr,vr,hd,vl,hu: 13% 20% 24%  4% 10%  7% 11%  3%  7%
[libx264 @ 0x55df7b310c60] i8c dc,h,v,p: 64% 21% 10%  5%
[libx264 @ 0x55df7b310c60] Weighted P-Frames: Y:0.0% UV:0.0%
[libx264 @ 0x55df7b310c60] ref P L0: 61.5% 22.8% 12.0%  3.6%
[libx264 @ 0x55df7b310c60] ref B L0: 77.5% 19.7%  2.9%
[libx264 @ 0x55df7b310c60] ref B L1: 78.5% 21.5%
[libx264 @ 0x55df7b310c60] PSNR Mean Y:36.127 U:45.068 V:48.037 Avg:37.684 Global:37.670 kb/s:127.45
